<svg class=" absolute aspect-square max-h-full" viewBox="0 0 434 434" version="1.1" xmlns="http://www.w3.org/2000/svg" xmlns:xlink="http://www.w3.org/1999/xlink"><g><path d="M214.403593,14.3371825 C191.227663,14.3371825 166.796384,15.604619 161,15.926097 C161.451542,15.556582 161.9255,15.2166282 162.361029,14.8545034 C167.532941,8.60600464 168.794696,4.24942263 171.430289,3.83556582 C186.143987,1.48035186 200.971869,0.199282192 215.825468,0 L216.786195,0 C231.632309,0.200360048 246.452674,1.48142719 261.158957,3.83556582 C263.79455,4.24942263 265.056304,8.60600464 270.228216,14.8545034 C270.436374,15.0281755 270.663746,15.1907622 270.868701,15.3644342 L271,16 C271,16 240.926053,14.3371825 214.403593,14.3371825 Z"></path><path d="M271.063165,15.7244178 C273.864811,16.960698 277.684595,19.4995861 285.975507,22.3986064 C317.935954,35.6328718 378.489065,50.1924525 403.722945,58.1333266 C434,84.602644 432.319608,149.457313 434,186.509478 C428.951924,194.450352 363.354538,197.097048 354.942578,187.834479 L353.258585,158.718465 C314.56957,268.568534 338.118057,314.891611 344.846425,390.32598 C349.894501,448.558007 82.445279,448.558007 87.4864538,390.32598 C94.2146216,314.887676 119.446901,268.568534 79.0742935,158.718465 L79.0742935,187.834479 C68.9819417,197.099881 3.38065502,194.453343 0.016871175,186.509478 C0.016871175,149.452591 -1.66712124,84.600283 28.6135349,58.1333266 C55.5258061,50.1924525 114.399525,35.6328718 146.360973,22.3986064 C156.952126,18.6954252 157.203248,16.3219462 161.037526,15.7244178 C161.445549,15.660832 201.422045,11.0592343 218.050811,11 C236.90501,10.9379416 268.74876,14.7031426 271.063165,15.7244178 Z"></path></g></svg>